<svg width="56" height="60" viewBox="0 0 56 60" fill="none" xmlns="http://www.w3.org/2000/svg">
<g clip-path="url(#clip0_12330_10694)">
<path d="M28.0045 60.0254L27.0203 59.6956C18.0424 56.6437 6.31925 48.071 2.79713 33.8847C-1.17389 17.8808 0.207334 9.02917 0.285028 8.65718L0.595803 6.8226L2.41729 6.29844C2.53815 6.29844 5.55958 5.40228 14.0455 3.2549C23.058 0.980696 27.2275 0.152177 27.4088 0.11836L28.0045 0L28.6001 0.11836C28.7728 0.11836 32.9164 0.963787 41.9548 3.2549C50.4493 5.40228 53.4621 6.26462 53.583 6.29844L55.4045 6.8226L55.7153 8.65718C55.7757 9.02917 57.1742 17.8808 53.2032 33.8847C49.681 48.071 37.9838 56.6437 28.9886 59.6703L28.0045 60.0254ZM6.0948 11.4386C5.93941 14.6005 6.01711 21.8036 8.6846 32.4898C11.5075 43.8439 20.6408 50.9032 28.0217 53.7185C35.394 50.9032 44.5101 43.8439 47.333 32.4898C50.0091 21.7106 50.0781 14.5752 49.9228 11.4386C48.1962 10.9652 45.1575 10.1705 40.4268 8.9869C33.5207 7.23686 29.4202 6.34916 27.9786 6.04481C26.5369 6.34916 22.4709 7.23686 15.5303 8.9869C10.86 10.1451 7.84723 10.9906 6.0948 11.4386Z" fill="#131313"/>
<path d="M28.0043 58.2161L27.6245 58.0724C18.9918 55.181 7.8298 47.0057 4.48034 33.4873C0.58701 17.8131 1.9337 9.29964 1.99413 8.93611L2.12362 8.14986L2.90919 7.92159C3.03005 7.92159 6.01695 7.02544 14.4769 4.89496C23.4463 2.62922 27.5727 1.80915 27.7453 1.77533L28.0043 1.72461L28.2547 1.77533C28.4273 1.77533 32.571 2.62076 41.523 4.89496C49.9917 7.02544 52.9786 7.88778 53.0994 7.92159L53.8764 8.14986L54.0145 8.93611C54.0663 9.29119 55.413 17.8131 51.5283 33.4535C48.1702 46.9804 36.9823 55.1472 28.4273 58.0385L28.0043 58.2161ZM4.46307 10.1451C4.23862 12.5292 3.89332 20.4001 6.99244 32.8871C10.0484 45.1965 20.1141 52.7208 28.0043 55.5276C35.8859 52.7208 45.9516 45.1965 49.0075 32.8871C52.1239 20.3578 51.7959 12.5207 51.5455 10.1451C50.1557 9.75617 46.8839 8.87693 40.8842 7.36361C33.2184 5.41913 29.0316 4.52297 28.0043 4.31162C26.9684 4.52297 22.8247 5.41913 15.1244 7.3467C9.1247 8.86002 5.85293 9.73926 4.46307 10.1451Z" fill="white"/>
<path d="M28.0043 3.01807C28.0043 3.01807 32.1653 3.86349 41.2036 6.12079C49.7413 8.27663 52.7369 9.13896 52.7369 9.13896C52.7369 9.13896 54.144 17.5932 50.2679 33.1829C47.1429 45.7798 36.8873 53.8705 28.0043 56.8549C19.1127 53.8536 8.8571 45.7629 5.73208 33.1829C1.86466 17.5848 3.27178 9.13896 3.27178 9.13896C3.27178 9.13896 6.25867 8.29354 14.7964 6.12079C23.8348 3.83813 28.0043 3.01807 28.0043 3.01807Z" fill="url(#paint0_linear_12330_10694)"/>
<path d="M27.9956 17.6348C28.3739 17.6266 28.7404 17.5026 29.0453 17.2798C29.3502 17.0569 29.5785 16.746 29.6993 16.3894C29.7607 16.2035 29.7924 16.0091 29.793 15.8133C29.7942 15.5177 29.721 15.2264 29.58 14.9662C29.426 14.6743 29.1945 14.43 28.9107 14.2597C28.6268 14.0895 28.3015 13.9998 27.9701 14.0004C27.6144 13.993 27.2641 14.0882 26.9618 14.2747C26.6594 14.4611 26.4178 14.7307 26.2664 15.0509C26.153 15.2892 26.0947 15.5497 26.096 15.8133C26.1005 16.295 26.2948 16.7558 26.6373 17.0964C26.9799 17.437 27.4431 17.6304 27.9275 17.6348H27.9956Z" fill="white"/>
<path d="M38.1666 37.1282L37.7578 37.3993L37.6215 37.4756L37.3574 37.6111L37.0763 37.7382L36.94 37.7975L36.7952 37.8483L36.5141 37.9585L36.2244 38.0432L35.6452 38.1957C35.4408 38.1957 35.2533 38.2804 35.0489 38.3058L34.7593 38.3566H34.2141C34.3845 38.0262 34.5378 37.6789 34.6826 37.3485C34.9514 36.6997 35.179 36.0348 35.3641 35.3576C35.4152 35.1967 35.4578 35.0357 35.4919 34.8832C35.51 34.8336 35.5242 34.7826 35.5345 34.7307C36.1137 34.3156 36.6759 33.8836 37.2381 33.4176L37.5448 33.1465L37.8429 32.867L38.4222 32.2909C38.7997 31.8983 39.1551 31.4854 39.487 31.054L39.5466 30.9778C39.6403 31.2404 39.7255 31.503 39.7937 31.7656C39.9156 32.2029 39.9927 32.6514 40.0236 33.1042C40.0236 33.2312 40.0236 33.3498 40.0236 33.4769H40.177C40.6267 33.481 41.0664 33.6101 41.4462 33.8497C41.4674 33.5677 41.4674 33.2845 41.4462 33.0025C41.4179 32.4552 41.3294 31.9125 41.1822 31.3844C41.1822 31.2488 41.1055 31.1218 41.0629 30.9862L41.0033 30.7914L40.9266 30.5965L40.7818 30.2153C40.7222 30.0882 40.671 29.9611 40.6199 29.8425L40.4581 29.563C40.6831 29.165 40.8795 28.7517 41.0459 28.3261C41.2421 27.8344 41.3849 27.3232 41.4718 26.8012C41.5644 26.2756 41.5901 25.7405 41.5484 25.2085L41.4973 24.8188L41.4207 24.4376C41.4207 24.3783 41.4207 24.3105 41.361 24.2427C41.345 24.1794 41.3251 24.1172 41.3014 24.0564V23.9547C41.3048 23.9266 41.3048 23.8981 41.3014 23.87L41.2333 23.709C41.039 23.2421 40.7779 22.8055 40.4581 22.4128C39.8458 21.6803 39.0698 21.1001 38.1922 20.7185C37.7883 20.534 37.3694 20.3838 36.94 20.2695L36.6248 20.1933L36.4715 20.1509H36.3096L36.003 20.0831L35.6963 20.0323C35.33 19.9815 34.9637 19.9391 34.606 19.9137C34.3937 19.4346 34.1489 18.9704 33.8734 18.5243L33.7115 18.2532L33.3367 17.711L33.1323 17.4484C32.8503 17.0883 32.5398 16.7512 32.2038 16.4403L32.0675 16.3132L31.9312 16.2031L31.6501 15.9743L31.3519 15.7625L31.1986 15.6609C31.1418 15.6349 31.0877 15.6037 31.0367 15.5677C30.8052 15.4278 30.5631 15.306 30.3127 15.2034C30.3714 15.3956 30.4001 15.5956 30.3979 15.7964C30.3984 16.0656 30.3493 16.3327 30.253 16.5843L30.4064 16.6605L30.679 16.813L30.9345 16.974C31.0208 17.0277 31.1033 17.0871 31.1816 17.1519L31.3093 17.2366L31.4286 17.3298L31.6586 17.5247L31.8886 17.728L32.1015 17.9398C32.1697 18.0075 32.2464 18.0753 32.3145 18.1516C32.3826 18.2278 32.5871 18.4481 32.7063 18.5921L32.8937 18.8208L33.0726 19.058C33.2771 19.3291 33.473 19.6087 33.6434 19.9052H33.3367C32.6299 19.9173 31.9245 19.9711 31.2241 20.0662L30.7386 20.1339L30.2701 20.2187L29.6056 20.3457C28.5955 19.9477 27.556 19.6276 26.4964 19.3884L26.0961 19.3037L25.6872 19.2275C25.4231 19.1851 25.1505 19.1343 24.8354 19.1004C24.5202 19.0665 24.0687 19.0157 23.6854 18.9903L23.7365 18.9225C24.0131 18.5395 24.3208 18.1796 24.6565 17.8466C24.9766 17.5304 25.3276 17.2466 25.7042 16.9994L25.8831 16.8893C25.7226 16.565 25.6381 16.2087 25.6361 15.8473C25.6362 15.685 25.6533 15.5231 25.6872 15.3644C25.4157 15.4956 25.1539 15.6457 24.9035 15.8134C24.4407 16.1166 24.0122 16.4688 23.6257 16.8639C23.5235 16.9655 23.4383 17.0672 23.3446 17.1688L23.072 17.4738C22.9954 17.584 22.9017 17.6856 22.8165 17.7957L22.5695 18.1261C22.365 18.4142 22.1691 18.7192 21.9902 19.0326H21.6069C21.0755 19.0879 20.5488 19.1813 20.031 19.3122C19.5159 19.4466 19.0163 19.634 18.5403 19.8713C18.0702 20.1001 17.6298 20.3845 17.2284 20.7185L16.9388 20.9811L16.6832 21.2776C16.6361 21.3245 16.5934 21.3756 16.5555 21.4301L16.4362 21.5911L16.3766 21.6673L16.3255 21.7436L16.2318 21.8961C15.9652 22.3274 15.7643 22.7956 15.6355 23.2854C15.4186 24.2106 15.4186 25.1729 15.6355 26.098C15.7282 26.5304 15.8535 26.9552 16.0103 27.3688C16.0103 27.462 16.087 27.5637 16.1295 27.6653L16.1892 27.8178L16.2573 27.9618C16.2794 28.0171 16.305 28.0708 16.334 28.1228V28.1652L16.1466 28.4278C16.0849 28.515 16.028 28.6055 15.9762 28.6989L15.8825 28.8344L15.7973 28.9784C15.7462 29.0716 15.6951 29.1733 15.6355 29.2665C15.4153 29.6679 15.23 30.0874 15.0818 30.5203C15.0581 30.5754 15.0382 30.632 15.0222 30.6897C15.0061 30.7474 14.9862 30.8041 14.9625 30.8592C14.9625 30.9778 14.8944 31.0879 14.8688 31.2065L14.7922 31.5708C14.7922 31.6301 14.7922 31.6894 14.7922 31.7487V31.9351C14.7496 32.2495 14.7325 32.5668 14.741 32.8839C15.1028 32.6731 15.5144 32.562 15.9336 32.562H16.0358C16.0273 32.3983 16.0273 32.2343 16.0358 32.0706C16.0358 32.0198 16.0358 31.969 16.0358 31.9181C16.0317 31.8674 16.0317 31.8164 16.0358 31.7656C16.0358 31.664 16.0358 31.5623 16.0358 31.4606C16.0358 31.359 16.0784 31.2658 16.0955 31.1641C16.1003 31.1163 16.1003 31.068 16.0955 31.0201C16.0906 30.9722 16.0906 30.924 16.0955 30.8761C16.1188 30.7787 16.1472 30.6825 16.1807 30.5881C16.1807 30.4864 16.2403 30.3932 16.2744 30.3C16.3084 30.2068 16.3425 30.1136 16.3766 30.0205L16.4958 29.7409C16.581 29.563 16.6577 29.3766 16.7429 29.2072V29.1309C17.0227 29.6029 17.3299 30.0583 17.6629 30.4949C18.129 31.0614 18.6297 31.599 19.1621 32.1045C19.2814 32.2146 19.3836 32.3417 19.5028 32.4518L19.8436 32.7822L20.0224 32.9432C20.1778 33.8295 20.3941 34.7041 20.6699 35.561L20.7976 35.9507L20.9339 36.3319C21.0361 36.586 21.1298 36.8402 21.2406 37.0859C21.2406 37.1875 21.3258 37.2892 21.3684 37.3909H21.0447L20.6869 37.3146C20.2232 37.2123 19.7677 37.0764 19.3239 36.908C18.8991 36.7441 18.4912 36.5398 18.1058 36.298C18.0332 36.2598 17.9648 36.2144 17.9014 36.1625C17.647 36.5887 17.2661 36.9261 16.811 37.1282C16.9729 37.2638 17.1518 37.3824 17.3221 37.501C17.7893 37.7968 18.286 38.0438 18.8043 38.238L19.3921 38.4414L19.588 38.4922L19.9884 38.6023L20.3887 38.6955C20.9287 38.8049 21.4749 38.8813 22.0243 38.9242H22.1691L22.382 39.2631L22.4843 39.4325L22.6035 39.5935L22.8335 39.9239C23.153 40.3497 23.5031 40.7517 23.8813 41.1269C24.2575 41.5013 24.6714 41.8363 25.1165 42.1265C25.5557 42.4156 26.0311 42.6463 26.5305 42.8128L26.9053 42.9229L27.2886 42.9991H28.0553C28.562 43.0085 29.0673 42.9428 29.5545 42.8043C30.4702 42.5294 31.3097 42.0481 32.0078 41.398C32.3376 41.1043 32.6425 40.7842 32.9193 40.4407L33.1237 40.1865L33.2174 40.0595C33.2174 40.0171 33.2771 39.9663 33.3112 39.9324L33.49 39.6782L33.6604 39.4156L33.7626 39.2546C34.0267 39.2546 34.2993 39.2546 34.5719 39.2546H35.8837C36.3386 39.1903 36.7884 39.094 37.2296 38.9666L37.4 38.9158L37.5703 38.8565L37.9026 38.7294L38.2433 38.5769L38.4051 38.4922L38.5755 38.4075C38.8 38.2861 39.0163 38.1503 39.2229 38.0008C38.7945 37.8159 38.428 37.5132 38.1666 37.1282ZM39.1207 30.0882L38.9844 30.2661L38.7544 30.5626C38.4307 30.9523 38.0985 31.3336 37.7322 31.6978L37.17 32.2316L36.5907 32.7399L35.8582 33.316V33.2143C35.8582 33.0787 35.9093 32.9432 35.9263 32.8161C35.9433 32.689 35.9689 32.562 35.9859 32.4434L36.037 32.0791C36.1563 31.1387 36.1904 30.3848 36.2159 29.8934C36.2159 29.6392 36.2159 29.4444 36.2159 29.3088V29.114C36.2241 29.0465 36.2241 28.9782 36.2159 28.9107V28.3346C36.2159 28.199 36.2159 28.0635 36.2159 27.9025C36.2115 27.8207 36.2115 27.7387 36.2159 27.6568C36.2159 27.5721 36.2159 27.4874 36.2159 27.3942C36.2159 27.301 36.2159 27.013 36.1733 26.8012C36.1307 26.5894 36.1733 26.3691 36.1137 26.1319C36.1137 26.0726 36.1137 26.0133 36.1137 25.954C36.3692 26.2166 36.6248 26.4793 36.8633 26.7504C36.9485 26.8351 37.0337 26.9367 37.1189 27.0384L37.3659 27.3264C37.5192 27.5298 37.6811 27.7246 37.8259 27.9364C38.1334 28.3351 38.4178 28.7509 38.6777 29.1817L38.8566 29.5037C38.9218 29.6064 38.9787 29.714 39.027 29.8256L39.1122 29.9866L39.1633 30.0797L39.1207 30.0882ZM35.577 20.4474L35.8667 20.5152L36.1648 20.5914H36.3181L36.463 20.6338L36.7526 20.727C36.8548 20.727 36.9485 20.7947 37.0507 20.8286L37.3403 20.9388L37.63 21.0658L37.9111 21.2014L38.0559 21.2776L38.1922 21.3539L38.4648 21.5148L38.7288 21.6927L38.8566 21.7944L38.9844 21.8876C39.3282 22.1532 39.6373 22.4606 39.9044 22.8025L40.0918 23.0736L40.1429 23.1414L40.1855 23.2177L40.2622 23.3617V23.4295C40.2654 23.4548 40.2654 23.4804 40.2622 23.5057L40.3303 23.6497L40.3984 23.8022V23.9293L40.4581 24.0987C40.4618 24.1268 40.4618 24.1553 40.4581 24.1834V24.4122C40.467 24.4655 40.467 24.5198 40.4581 24.5731C40.4581 24.6833 40.4581 24.7934 40.5262 24.9035V25.2339C40.5545 25.6935 40.523 26.1548 40.4325 26.6064C40.3429 27.0746 40.203 27.5318 40.0151 27.9703C39.9214 28.1821 39.8192 28.3939 39.717 28.6057L39.5637 28.36C39.2738 27.8966 38.9582 27.4497 38.6181 27.0215C38.4477 26.8012 38.2603 26.5894 38.09 26.3776C37.9196 26.1658 37.9026 26.1743 37.8089 26.0726C37.7152 25.971 37.63 25.8693 37.5278 25.7676C36.9058 25.1164 36.2429 24.5052 35.543 23.9377C35.543 23.8276 35.5004 23.7175 35.4748 23.5989L35.3726 23.1329C35.3726 22.9805 35.2959 22.8195 35.2533 22.6585C35.0834 21.9672 34.8672 21.2879 34.606 20.6253C34.5548 20.4898 34.5122 20.3627 34.4611 20.2356C35.0148 20.3457 35.2959 20.3881 35.577 20.4474ZM29.8101 20.4474L30.253 20.3712L30.7216 20.3118L31.1986 20.2526C31.8953 20.1906 32.5949 20.168 33.2941 20.1848H33.7882C33.9415 20.4389 34.0863 20.7016 34.2141 20.9557C34.5387 21.5694 34.8232 22.2033 35.0659 22.8534C35.117 23.0059 35.1767 23.1583 35.2278 23.3024L35.3045 23.5565L35.0404 23.3532L34.6997 23.1075L34.3589 22.8703L34.0182 22.6416L33.8393 22.523L33.6604 22.4213L33.3112 22.1926L33.2174 22.1333L32.9619 21.9808L32.5956 21.769C31.7013 21.2643 30.7767 20.8144 29.8271 20.422L29.8101 20.4474ZM21.7176 22.9296L21.9732 22.201C22.0669 21.9723 22.1521 21.7351 22.2628 21.4979C22.4573 21.0377 22.6763 20.5881 22.9187 20.1509C22.9783 20.0577 23.0295 19.9645 23.0806 19.8713H23.1487C23.6513 19.8713 24.1709 19.9476 24.6735 20.0238C24.929 20.0238 25.1846 20.117 25.4401 20.1594L25.815 20.2441L26.1983 20.3288C26.7264 20.4644 27.2546 20.6168 27.7742 20.7947C26.9224 21.0574 26.2068 21.3115 25.7468 21.4809L25.2016 21.7012L25.0142 21.7775L24.8354 21.8537L24.3072 22.0909L23.9154 22.2688L23.6939 22.3705L23.4554 22.4976C23.2935 22.5823 23.1061 22.667 22.9272 22.7687C22.7483 22.8703 22.5354 22.9635 22.3309 23.0906L22.0072 23.2685L21.675 23.4633C21.6297 23.4962 21.5812 23.5246 21.5302 23.548C21.5898 23.3447 21.6495 23.1414 21.7176 22.9296ZM19.9287 32.7229L19.6051 32.3925C19.4943 32.2739 19.3836 32.1553 19.2814 32.0283C18.8133 31.5128 18.3808 30.9665 17.9866 30.3932C17.6372 29.8831 17.3214 29.3511 17.041 28.8005V28.7582C17.4159 28.1051 17.8493 27.487 18.3358 26.9113C18.8043 26.3522 18.4466 26.7927 18.9236 26.3522L19.8691 25.3102L19.7925 25.8354L19.7499 26.2505C19.7499 26.3861 19.7499 26.5216 19.7499 26.6572C19.7499 26.7927 19.7499 26.9367 19.7499 27.0723V29.5545C19.7499 29.69 19.7499 29.8341 19.7499 29.9696V31.2065C19.7499 31.342 19.7499 31.4776 19.7925 31.6131C19.8351 31.7487 19.7925 31.8842 19.8436 32.0283L19.9032 32.4349C19.9032 32.545 19.9032 32.6636 19.9543 32.7653L19.9287 32.7229ZM20.5932 22.1502L20.4654 22.5484C20.2752 23.2093 20.1188 23.8795 19.9969 24.5562L19.835 24.6748L19.4347 24.9713C18.868 25.4051 18.3275 25.8719 17.8162 26.3691C17.3745 26.802 16.9619 27.2633 16.581 27.75V27.6738C16.581 27.6229 16.581 27.5721 16.581 27.5298L16.4788 27.2333C16.4788 27.1401 16.4192 27.0384 16.3851 26.9367C16.351 26.8351 16.3255 26.7334 16.3084 26.6402C16.2914 26.547 16.2573 26.4284 16.2403 26.3353L16.1892 26.0218V25.8693C16.185 25.8157 16.185 25.7619 16.1892 25.7084C16.1892 25.6067 16.1892 25.505 16.1892 25.3949C16.1892 25.2847 16.1892 25.1831 16.1892 25.073V24.912C16.1892 24.8612 16.1892 24.8019 16.1892 24.751C16.203 24.3212 16.2688 23.8945 16.3851 23.4803C16.3851 23.3702 16.4618 23.2685 16.4958 23.1668V23.0143L16.564 22.8703V22.7941C16.5608 22.7688 16.5608 22.7432 16.564 22.7178L16.7258 22.4298L16.7684 22.3535L16.8706 22.201L16.9218 22.1333L16.9729 22.074L17.0751 21.9469C17.1065 21.9025 17.1407 21.8601 17.1773 21.8198L17.4158 21.5826C17.497 21.5047 17.5823 21.4312 17.6714 21.3624C18.0286 21.0701 18.4205 20.8226 18.8384 20.6253C19.2716 20.4238 19.7258 20.2704 20.1928 20.1678C20.616 20.0671 21.0458 19.9963 21.4791 19.956C21.2992 20.311 21.1399 20.6758 21.0021 21.0489C20.8999 21.2946 20.8147 21.5572 20.7125 21.8198C20.6699 21.8876 20.6273 22.0231 20.5932 22.1502ZM21.198 33.8666C21.0787 33.3329 20.9935 32.7907 20.9169 32.2485L20.8743 31.8588C20.8743 31.7317 20.8743 31.5962 20.8743 31.4691C20.8743 31.342 20.8743 31.2065 20.8743 31.0709V29.8934C20.8743 29.7578 20.8743 29.6223 20.8743 29.4952V27.1231C20.8743 26.996 20.8743 26.869 20.9169 26.7334C20.9595 26.5979 20.9169 26.4708 20.9595 26.3437L21.0191 25.954C21.1213 25.3017 21.2576 24.6663 21.4195 24.0309L21.5132 23.9632L21.8369 23.7344C22.0498 23.5819 22.2628 23.4549 22.4587 23.3278L23.0294 22.9805L23.5491 22.6839C23.8642 22.506 24.1454 22.3705 24.4009 22.2519C24.6565 22.1333 24.8013 22.0655 24.9205 22.0147L25.1079 21.9215L25.2868 21.8537L25.8235 21.625C26.062 21.5403 26.3431 21.4132 26.6753 21.2946L27.229 21.1082C27.4335 21.0404 27.6464 20.9727 27.8764 20.9134H27.9957C29.3946 21.4113 30.7412 22.044 32.0163 22.8025C33.3743 23.6158 34.6395 24.5731 35.79 25.6575C35.79 25.8354 35.8496 26.0133 35.8752 26.1828C35.9007 26.3522 35.9518 26.6402 35.9689 26.8436C35.9859 27.0469 36.02 27.2502 36.037 27.4366C36.037 27.8009 36.0882 28.1058 36.0967 28.36C36.1052 28.6141 36.0967 28.8005 36.0967 28.9361C36.0886 29.0008 36.0886 29.0662 36.0967 29.1309V29.3258C36.0967 29.4613 36.0967 29.6562 36.0967 29.9103C36.0967 30.1645 36.0967 30.4695 36.0541 30.8337C36.0541 31.0201 36.0541 31.2065 36.003 31.4268C35.9519 31.647 36.003 31.8504 35.9263 32.0876C35.8496 32.3248 35.8582 32.562 35.8156 32.8161C35.8156 32.9432 35.8156 33.0787 35.7474 33.2143L35.6963 33.4515C33.0952 35.3406 30.1136 36.6469 26.9564 37.2807L26.3431 37.0266L25.7979 36.7809C25.4657 36.6369 25.1931 36.4844 24.9461 36.3743L24.2646 36.0015L24.0942 35.8998L23.6002 35.6033C23.3787 35.4678 23.1146 35.3068 22.8165 35.095C22.6631 34.9849 22.5013 34.8832 22.3309 34.7477C22.1606 34.6121 21.9817 34.502 21.7943 34.3495C21.6069 34.197 21.4365 34.0699 21.2491 33.909L21.198 33.8666ZM22.4161 37.5603C22.2969 37.3061 22.1861 37.0435 22.0839 36.7809C21.9817 36.5183 21.905 36.298 21.8113 36.0608C21.7176 35.8236 21.7347 35.8151 21.6921 35.6965C21.6495 35.5779 21.6069 35.4508 21.5728 35.3237C21.4535 34.9171 21.3428 34.4766 21.2576 34.0869L21.3939 34.197L21.6835 34.4257C22.4417 35.0018 23.0635 35.4085 23.4894 35.688L23.9835 35.993L24.3242 36.1963L24.8354 36.4928L25.2102 36.6962L25.4231 36.8148L25.6616 36.9334L26.1983 37.2045L26.5049 37.3485C26.0535 37.4247 25.602 37.484 25.142 37.5264H24.3753C24.1198 37.5264 23.8643 37.5264 23.6087 37.5264C23.2121 37.5599 22.814 37.5712 22.4161 37.5603ZM33.1067 39.5173C33.0471 39.602 32.9874 39.6698 32.9193 39.7545C32.8855 39.7919 32.8542 39.8315 32.8256 39.8731L32.7234 39.9917L32.5275 40.2204L32.3145 40.4492L32.093 40.6694L31.863 40.8812C31.7846 40.9535 31.7021 41.0214 31.616 41.0845L31.4967 41.1862L31.369 41.2794L31.1049 41.4657L30.8408 41.6352C30.7955 41.6681 30.747 41.6965 30.696 41.7199L30.5597 41.7962C30.1876 41.9988 29.7931 42.158 29.3842 42.2706L29.0605 42.3299H27.5697C27.5159 42.334 27.4618 42.334 27.4079 42.3299L27.0757 42.2536L26.752 42.152C26.32 41.9899 25.9106 41.7736 25.5339 41.5081C25.1359 41.243 24.7701 40.9331 24.4435 40.5847C24.107 40.229 23.7967 39.8496 23.515 39.4495L23.3106 39.1445L23.2083 38.9835H23.6598C23.9409 38.9835 24.2135 38.9835 24.5116 38.9327L24.9205 38.8904H25.3379C26.3954 38.7537 27.4406 38.5356 28.4642 38.238H28.5153L28.7197 38.3058L29.1542 38.4668L29.6056 38.6108L30.0827 38.7548C30.7685 38.953 31.4654 39.1114 32.1697 39.2292C32.536 39.2885 32.9108 39.3394 33.3026 39.3648L33.1067 39.5173ZM33.8052 38.4414C33.2718 38.471 32.7372 38.471 32.2038 38.4414C31.5142 38.401 30.8282 38.3132 30.1508 38.1787L29.6738 38.0855L29.2223 37.9754H29.0945L29.316 37.8992C29.4438 37.8568 29.5801 37.8229 29.7079 37.7721L30.0997 37.6281L30.2956 37.5603L30.5001 37.4841L30.8834 37.3231H30.9856L31.0878 37.1875L31.2753 37.1028L31.6501 36.9418C32.9386 36.3694 34.1731 35.6833 35.3385 34.8917C35.2959 35.0357 35.2448 35.1882 35.1937 35.3407C34.9828 36.0012 34.7267 36.6466 34.4271 37.2723C34.2445 37.6674 34.0397 38.0521 33.8137 38.4244L33.8052 38.4414Z" fill="white"/>
<path d="M17.4585 35.7897C17.5921 35.527 17.6621 35.2369 17.6629 34.9425C17.666 34.481 17.491 34.0358 17.1741 33.6986C16.8573 33.3614 16.4225 33.1577 15.9592 33.1296H15.8229C15.3395 33.1296 14.8758 33.3206 14.5339 33.6606C14.1921 34.0006 14 34.4617 14 34.9425C14 35.4234 14.1921 35.8845 14.5339 36.2245C14.8758 36.5645 15.3395 36.7555 15.8229 36.7555C16.1553 36.7549 16.4812 36.6648 16.7662 36.4947C17.0512 36.3247 17.2845 36.0811 17.4414 35.7897H17.4585Z" fill="white"/>
<path d="M40.177 34.0361H39.9981C39.5746 34.0759 39.1784 34.2617 38.8782 34.5615C38.578 34.8612 38.3926 35.2559 38.3542 35.6772C38.3158 36.0986 38.4267 36.52 38.6678 36.8685C38.9089 37.2171 39.265 37.4708 39.6744 37.5857C39.8411 37.6301 40.0129 37.6529 40.1855 37.6535C40.4245 37.6535 40.6611 37.6065 40.8818 37.5153C41.1025 37.4241 41.3029 37.2904 41.4715 37.122C41.6401 36.9535 41.7736 36.7536 41.8643 36.5337C41.9549 36.3138 42.001 36.0782 41.9999 35.8405C42.0022 35.6018 41.9566 35.3651 41.8658 35.1441C41.775 34.9231 41.6408 34.7223 41.4711 34.5535C41.3013 34.3847 41.0995 34.2513 40.8773 34.161C40.6551 34.0707 40.417 34.0253 40.177 34.0276V34.0361Z" fill="white"/>
<path d="M28.2171 34.6461C29.3328 34.6477 30.4239 34.3202 31.3524 33.705C32.2808 33.0898 33.0049 32.2145 33.4331 31.1898C33.8612 30.1652 33.9741 29.0373 33.7575 27.9488C33.5408 26.8604 33.0044 25.8603 32.2161 25.0751C31.4278 24.29 30.423 23.755 29.3289 23.5379C28.2348 23.3208 27.1005 23.4314 26.0695 23.8556C25.0386 24.2798 24.1574 24.9986 23.5374 25.9211C22.9174 26.8436 22.5864 27.9282 22.5864 29.0378C22.5864 30.5237 23.1794 31.9489 24.2351 33.0004C25.2908 34.052 26.723 34.6438 28.2171 34.6461ZM26.5134 26.0134H29.8185V27.0638H27.7997V28.3262H29.6822V29.3682H27.7997V30.6728H29.9548V31.7148H26.5475L26.5134 26.0134Z" fill="white"/>
</g>
<defs>
<linearGradient id="paint0_linear_12330_10694" x1="3.02143" y1="29.9449" x2="52.9786" y2="29.9449" gradientUnits="userSpaceOnUse">
<stop offset="0.5" stop-color="#252525"/>
<stop offset="1"/>
</linearGradient>
<clipPath id="clip0_12330_10694">
<rect width="56" height="60" fill="white"/>
</clipPath>
</defs>
</svg>
